<mxfile host="app.diagrams.net" modified="2020-09-17T11:55:16.322Z" agent="5.0 (Macintosh; Intel Mac OS X 10_14_6) AppleWebKit/537.36 (KHTML, like Gecko) Chrome/85.0.4183.83 Safari/537.36" etag="bDAorbVqj7Hn0z1lOWSV" version="13.7.1" type="github">
  <diagram id="sfLvpoiH2K3570SHFKUO" name="Page-1">
    <mxGraphModel dx="1999" dy="727" grid="0" gridSize="10" guides="1" tooltips="1" connect="1" arrows="1" fold="1" page="1" pageScale="1" pageWidth="827" pageHeight="1169" math="0" shadow="0">
      <root>
        <mxCell id="0" />
        <mxCell id="1" parent="0" />
        <mxCell id="1ZiyeTRZ8sJ_AMqxoh_V-15" value="" style="rounded=0;whiteSpace=wrap;html=1;fillColor=none;dashed=1;" vertex="1" parent="1">
          <mxGeometry x="570" y="20" width="230" height="433" as="geometry" />
        </mxCell>
        <mxCell id="1ZiyeTRZ8sJ_AMqxoh_V-16" style="edgeStyle=none;rounded=0;orthogonalLoop=1;jettySize=auto;html=1;exitX=1;exitY=0.5;exitDx=0;exitDy=0;entryX=-0.017;entryY=0.296;entryDx=0;entryDy=0;startArrow=classic;startFill=1;entryPerimeter=0;strokeColor=#FF3333;strokeWidth=2;" edge="1" parent="1" source="1ZiyeTRZ8sJ_AMqxoh_V-1" target="1ZiyeTRZ8sJ_AMqxoh_V-15">
          <mxGeometry relative="1" as="geometry" />
        </mxCell>
        <mxCell id="1ZiyeTRZ8sJ_AMqxoh_V-23" style="edgeStyle=none;rounded=0;orthogonalLoop=1;jettySize=auto;html=1;exitX=0;exitY=0.5;exitDx=0;exitDy=0;entryX=1;entryY=0.5;entryDx=0;entryDy=0;startArrow=none;startFill=0;strokeColor=#FF3333;strokeWidth=2;" edge="1" parent="1" source="1ZiyeTRZ8sJ_AMqxoh_V-1" target="1ZiyeTRZ8sJ_AMqxoh_V-19">
          <mxGeometry relative="1" as="geometry" />
        </mxCell>
        <mxCell id="1ZiyeTRZ8sJ_AMqxoh_V-24" style="edgeStyle=none;rounded=0;orthogonalLoop=1;jettySize=auto;html=1;exitX=0;exitY=0.5;exitDx=0;exitDy=0;entryX=1;entryY=0.5;entryDx=0;entryDy=0;startArrow=none;startFill=0;strokeColor=#FF3333;strokeWidth=2;" edge="1" parent="1" source="1ZiyeTRZ8sJ_AMqxoh_V-1" target="1ZiyeTRZ8sJ_AMqxoh_V-20">
          <mxGeometry relative="1" as="geometry" />
        </mxCell>
        <mxCell id="1ZiyeTRZ8sJ_AMqxoh_V-25" style="edgeStyle=none;rounded=0;orthogonalLoop=1;jettySize=auto;html=1;exitX=0;exitY=0.5;exitDx=0;exitDy=0;entryX=1;entryY=0.5;entryDx=0;entryDy=0;startArrow=none;startFill=0;strokeColor=#FF3333;strokeWidth=2;" edge="1" parent="1" source="1ZiyeTRZ8sJ_AMqxoh_V-1" target="1ZiyeTRZ8sJ_AMqxoh_V-21">
          <mxGeometry relative="1" as="geometry" />
        </mxCell>
        <mxCell id="1ZiyeTRZ8sJ_AMqxoh_V-1" value="原服务 nebula_read" style="rounded=1;whiteSpace=wrap;html=1;fillColor=#f8cecc;strokeColor=#b85450;" vertex="1" parent="1">
          <mxGeometry x="240" y="120" width="200" height="50" as="geometry" />
        </mxCell>
        <mxCell id="1ZiyeTRZ8sJ_AMqxoh_V-17" style="edgeStyle=none;rounded=0;orthogonalLoop=1;jettySize=auto;html=1;exitX=1;exitY=0.5;exitDx=0;exitDy=0;entryX=-0.013;entryY=0.667;entryDx=0;entryDy=0;entryPerimeter=0;startArrow=classic;startFill=1;strokeColor=#00CC00;strokeWidth=2;" edge="1" parent="1" source="1ZiyeTRZ8sJ_AMqxoh_V-2" target="1ZiyeTRZ8sJ_AMqxoh_V-15">
          <mxGeometry relative="1" as="geometry" />
        </mxCell>
        <mxCell id="1ZiyeTRZ8sJ_AMqxoh_V-27" style="edgeStyle=none;rounded=0;orthogonalLoop=1;jettySize=auto;html=1;exitX=0;exitY=0.5;exitDx=0;exitDy=0;entryX=1;entryY=0.5;entryDx=0;entryDy=0;startArrow=none;startFill=0;strokeColor=#00CC00;strokeWidth=2;" edge="1" parent="1" source="1ZiyeTRZ8sJ_AMqxoh_V-2" target="1ZiyeTRZ8sJ_AMqxoh_V-19">
          <mxGeometry relative="1" as="geometry" />
        </mxCell>
        <mxCell id="1ZiyeTRZ8sJ_AMqxoh_V-28" style="edgeStyle=none;rounded=0;orthogonalLoop=1;jettySize=auto;html=1;exitX=0;exitY=0.5;exitDx=0;exitDy=0;entryX=1;entryY=0.5;entryDx=0;entryDy=0;startArrow=none;startFill=0;strokeColor=#00CC00;strokeWidth=2;" edge="1" parent="1" source="1ZiyeTRZ8sJ_AMqxoh_V-2" target="1ZiyeTRZ8sJ_AMqxoh_V-20">
          <mxGeometry relative="1" as="geometry" />
        </mxCell>
        <mxCell id="1ZiyeTRZ8sJ_AMqxoh_V-29" style="edgeStyle=none;rounded=0;orthogonalLoop=1;jettySize=auto;html=1;exitX=0;exitY=0.5;exitDx=0;exitDy=0;entryX=1;entryY=0.5;entryDx=0;entryDy=0;startArrow=none;startFill=0;strokeColor=#00CC00;strokeWidth=2;" edge="1" parent="1" source="1ZiyeTRZ8sJ_AMqxoh_V-2" target="1ZiyeTRZ8sJ_AMqxoh_V-21">
          <mxGeometry relative="1" as="geometry" />
        </mxCell>
        <mxCell id="1ZiyeTRZ8sJ_AMqxoh_V-2" value="新服务 nebula_read_tt_i18n" style="rounded=1;whiteSpace=wrap;html=1;fillColor=#d5e8d4;strokeColor=#82b366;" vertex="1" parent="1">
          <mxGeometry x="240" y="280" width="200" height="50" as="geometry" />
        </mxCell>
        <mxCell id="1ZiyeTRZ8sJ_AMqxoh_V-3" value="Redis" style="shape=process;whiteSpace=wrap;html=1;backgroundOutline=1;" vertex="1" parent="1">
          <mxGeometry x="600" y="40" width="170" height="60" as="geometry" />
        </mxCell>
        <mxCell id="1ZiyeTRZ8sJ_AMqxoh_V-4" value="MQ" style="shape=process;whiteSpace=wrap;html=1;backgroundOutline=1;" vertex="1" parent="1">
          <mxGeometry x="600" y="140" width="170" height="60" as="geometry" />
        </mxCell>
        <mxCell id="1ZiyeTRZ8sJ_AMqxoh_V-5" value="DataBase" style="shape=cylinder3;whiteSpace=wrap;html=1;boundedLbl=1;backgroundOutline=1;size=15;" vertex="1" parent="1">
          <mxGeometry x="600" y="328" width="170" height="80" as="geometry" />
        </mxCell>
        <mxCell id="1ZiyeTRZ8sJ_AMqxoh_V-14" value="ES" style="shape=process;whiteSpace=wrap;html=1;backgroundOutline=1;" vertex="1" parent="1">
          <mxGeometry x="600" y="237" width="170" height="60" as="geometry" />
        </mxCell>
        <mxCell id="1ZiyeTRZ8sJ_AMqxoh_V-18" value="" style="rounded=0;whiteSpace=wrap;html=1;fillColor=none;dashed=1;" vertex="1" parent="1">
          <mxGeometry x="-110" y="30" width="230" height="421" as="geometry" />
        </mxCell>
        <mxCell id="1ZiyeTRZ8sJ_AMqxoh_V-19" value="上游服务" style="rounded=1;whiteSpace=wrap;html=1;" vertex="1" parent="1">
          <mxGeometry x="-95" y="60" width="200" height="50" as="geometry" />
        </mxCell>
        <mxCell id="1ZiyeTRZ8sJ_AMqxoh_V-20" value="上游服务" style="rounded=1;whiteSpace=wrap;html=1;" vertex="1" parent="1">
          <mxGeometry x="-95" y="140" width="200" height="50" as="geometry" />
        </mxCell>
        <mxCell id="1ZiyeTRZ8sJ_AMqxoh_V-21" value="上游服务" style="rounded=1;whiteSpace=wrap;html=1;" vertex="1" parent="1">
          <mxGeometry x="-90" y="375" width="200" height="50" as="geometry" />
        </mxCell>
        <mxCell id="1ZiyeTRZ8sJ_AMqxoh_V-26" value="... ..." style="rounded=1;whiteSpace=wrap;html=1;dashed=1;" vertex="1" parent="1">
          <mxGeometry x="-90" y="230" width="200" height="120" as="geometry" />
        </mxCell>
        <mxCell id="1ZiyeTRZ8sJ_AMqxoh_V-30" value="共用" style="text;html=1;strokeColor=none;fillColor=none;align=center;verticalAlign=middle;whiteSpace=wrap;rounded=0;dashed=1;fontStyle=1;fontSize=18;" vertex="1" parent="1">
          <mxGeometry x="477" y="217" width="60" height="20" as="geometry" />
        </mxCell>
        <mxCell id="1ZiyeTRZ8sJ_AMqxoh_V-31" value="二选一" style="text;html=1;strokeColor=none;fillColor=none;align=center;verticalAlign=middle;whiteSpace=wrap;rounded=0;dashed=1;fontStyle=1;fontSize=18;" vertex="1" parent="1">
          <mxGeometry x="220" y="220" width="110" height="20" as="geometry" />
        </mxCell>
      </root>
    </mxGraphModel>
  </diagram>
</mxfile>
